<svg width="26" height="21" viewBox="0 0 26 21" fill="none" xmlns="http://www.w3.org/2000/svg">
<path d="M20.605 8.72847C20.605 8.21952 20.75 7.71057 20.75 7.03197C20.75 3.29967 18.14 0.245972 14.95 0.245972C12.63 0.245972 10.745 1.77282 9.73001 3.97827C9.44001 3.80862 8.86001 3.63897 8.42501 3.63897C6.39501 3.63897 4.80001 5.50512 4.80001 7.88022C4.80001 8.21952 4.80001 8.55882 4.94501 8.72847C2.33501 9.23742 0.450012 11.6125 0.450012 14.6662C0.450012 17.8896 2.77001 20.604 5.52501 20.604H20.025C22.78 20.604 25.1 17.8896 25.1 14.6662C25.1 11.6125 23.215 9.06777 20.605 8.72847Z" fill="white"/>
</svg>
